<svg width="600" height="600" viewBox="0 0 600 600" fill="none" xmlns="http://www.w3.org/2000/svg">
<g filter="url(#filter0_d_62_6)">
<circle cx="300" cy="319" r="256" fill="#FF6B00"/>
</g>
<path d="M191.264 452.2C183.61 452.2 177.264 450.893 172.224 448.28C167.184 445.853 163.73 442.307 161.864 437.64C167.277 435.773 171.944 433.44 175.864 430.64C179.597 427.84 182.957 423.827 185.944 418.6C188.744 413.373 191.357 406.187 193.784 397.04C196.397 387.893 199.104 376.133 201.904 361.76L220.384 265.16H269.664L250.344 365.12C246.237 385.84 241.757 402.547 236.904 415.24C232.05 428.12 225.984 437.453 218.704 443.24C211.424 449.213 202.277 452.2 191.264 452.2ZM199.944 268.8L202.464 256.2H222.064L225.984 239.96C228.784 228.76 233.45 220.08 239.984 213.92C246.517 207.76 254.357 203.467 263.504 201.04C272.65 198.613 282.357 197.4 292.624 197.4C297.85 197.4 303.17 197.773 308.584 198.52C314.184 199.08 319.317 200.2 323.984 201.88C328.65 203.56 332.384 205.987 335.184 209.16C338.17 212.147 339.664 215.973 339.664 220.64C339.664 227.173 336.957 232.027 331.544 235.2C326.317 238.373 320.437 239.96 313.904 239.96C311.29 239.96 308.584 239.773 305.784 239.4C303.17 238.84 300.744 237.907 298.504 236.6C299.81 234.36 300.744 231.747 301.304 228.76C302.05 225.587 302.424 222.787 302.424 220.36C302.424 217.187 301.77 214.667 300.464 212.8C299.157 210.747 296.824 209.72 293.464 209.72C288.05 209.72 283.85 212.333 280.864 217.56C278.064 222.787 276.01 229.32 274.704 237.16L271.344 256.2H296.544L294.864 268.8H199.944ZM282.259 404.04L310.819 256.2L351.699 251.16L347.499 278.04C351.606 269.267 357.206 262.547 364.299 257.88C371.579 253.027 380.073 250.6 389.779 250.6C400.419 250.6 408.446 253.4 413.859 259C419.459 264.413 422.259 272.067 422.259 281.96C422.259 293.16 418.993 302.493 412.459 309.96C405.926 317.24 397.433 320.88 386.979 320.88C383.993 320.88 381.006 320.507 378.019 319.76C375.033 319.013 372.699 317.707 371.019 315.84C374.193 311.92 376.713 306.88 378.579 300.72C380.633 294.373 381.659 288.773 381.659 283.92C381.659 280.56 381.006 277.76 379.699 275.52C378.579 273.28 376.339 272.16 372.979 272.16C369.806 272.16 366.819 273.28 364.019 275.52C361.406 277.76 359.073 280.933 357.019 285.04C354.966 288.96 353.099 293.72 351.419 299.32C349.739 304.92 348.339 311.08 347.219 317.8L333.779 399L282.259 404.04Z" fill="#F0EAE5"/>
<defs>
<filter id="filter0_d_62_6" x="36" y="55" width="528" height="528" filterUnits="userSpaceOnUse" color-interpolation-filters="sRGB">
<feFlood flood-opacity="0" result="BackgroundImageFix"/>
<feColorMatrix in="SourceAlpha" type="matrix" values="0 0 0 0 0 0 0 0 0 0 0 0 0 0 0 0 0 0 127 0" result="hardAlpha"/>
<feOffset/>
<feGaussianBlur stdDeviation="4"/>
<feComposite in2="hardAlpha" operator="out"/>
<feColorMatrix type="matrix" values="0 0 0 0 1 0 0 0 0 0.42 0 0 0 0 0 0 0 0 0.5 0"/>
<feBlend mode="normal" in2="BackgroundImageFix" result="effect1_dropShadow_62_6"/>
<feBlend mode="normal" in="SourceGraphic" in2="effect1_dropShadow_62_6" result="shape"/>
</filter>
</defs>
</svg>
