<!DOCTYPE svg PUBLIC "-//W3C//DTD SVG 1.1//EN" "http://www.w3.org/Graphics/SVG/1.1/DTD/svg11.dtd">
<!-- Uploaded to: SVG Repo, www.svgrepo.com, Transformed by: SVG Repo Mixer Tools -->
<svg height="256px" width="256px" version="1.1" id="Layer_1" xmlns="http://www.w3.org/2000/svg" xmlns:xlink="http://www.w3.org/1999/xlink" viewBox="0 0 496.20 496.20" xml:space="preserve" fill="#000000">
<g id="SVGRepo_bgCarrier" stroke-width="0"/>
<g id="SVGRepo_tracerCarrier" stroke-linecap="round" stroke-linejoin="round" stroke="#CCCCCC" stroke-width="1.9848"/>
<g id="SVGRepo_iconCarrier"> <path style="fill:#FF6B00;" d="M496.2,248.1C496.2,111.1,385.1,0,248.1,0S0,111.1,0,248.1s111.1,248.1,248.1,248.1 S496.2,385.1,496.2,248.1z"/> <g> <path style="fill:#FFF8F3;" d="M181.1,397.9c0,7.2-5.9,13.1-13.1,13.1h-6.6c-7.2,0-13.1-5.9-13.1-13.1l7.5-36.3l0.7-154.5 c0-7.3,2.9-13.1,6.5-13.1h3.3c3.6,0,6.5,5.9,6.5,13.1l0.7,154.5L181.1,397.9z"/> <path style="fill:#FFF8F3;" d="M202.7,160.5c0,32.7-17,45.7-37.9,45.7s-37.9-13.1-37.9-45.7c0-32.7,17-68,37.9-68 C185.7,92.5,202.7,127.8,202.7,160.5z"/> </g> <path style="fill:#FFF8F3;" d="M163.8,195.8c-16,0-28.9-10-28.9-34.9C134.8,136,179.7,195.8,163.8,195.8z"/> <g> <path style="fill:#FFF8F3;" d="M360.5,397.9c0,7.2-5.9,13.1-13.1,13.1h-6.6c-7.2,0-13.1-5.9-13.1-13.1l7.5-36.3l0.7-154.5 c0-7.3,2.9-13.1,6.5-13.1h3.3c3.6,0,6.5,5.9,6.5,13.1l0.7,154.5L360.5,397.9z"/> <path style="fill:#FFF8F3;" d="M369.4,160.5c0,32.7-11.3,45.7-25.2,45.7c-13.9,0-25.2-13.1-25.2-45.7H369.4z"/> <path style="fill:#FFF8F3;" d="M347.1,158.5c0,27.8-5.8,27.8-5.8,0s1.3-58,2.9-58S347.1,130.7,347.1,158.5z"/> <path style="fill:#FFF8F3;" d="M335.9,158.5c0,27.8-5.8,27.8-5.8,0s1.3-58,2.9-58S335.9,130.7,335.9,158.5z"/> <path style="fill:#FFF8F3;" d="M324.8,158.5c0,27.8-5.8,27.8-5.8,0s1.3-58,2.9-58C323.5,100.5,324.8,130.7,324.8,158.5z"/> <path style="fill:#FFF8F3;" d="M358.2,158.5c0,27.8-5.8,27.8-5.8,0s1.3-58,2.9-58C356.9,100.5,358.2,130.7,358.2,158.5z"/> <path style="fill:#FFF8F3;" d="M369.4,158.5c0,27.8-5.8,27.8-5.8,0s1.3-58,2.9-58S369.4,130.7,369.4,158.5z"/> <path style="fill:#FFF8F3;" d="M271.1,397.9c0,7.2-5.9,13.1-13.1,13.1h-6.6c-7.3,0-13.1-5.9-13.1-13.1l7.5-36.3l0.7-154.5 c0-7.3,2.9-13.1,6.5-13.1h3.3c3.6,0,6.5,5.9,6.5,13.1l0.7,154.5L271.1,397.9z"/> <path style="fill:#FFF8F3;" d="M282.2,160.5c0,32.7-14.8,64-35.7,64c0,0,0-31.3,0-64V85.2C267.4,85.2,282.2,127.8,282.2,160.5z"/> </g> </g>
</svg>