<!DOCTYPE svg PUBLIC "-//W3C//DTD SVG 1.1//EN" "http://www.w3.org/Graphics/SVG/1.1/DTD/svg11.dtd">
<!-- Uploaded to: SVG Repo, www.svgrepo.com, Transformed by: SVG Repo Mixer Tools -->
<svg fill="#272727" width="256px" height="256px" viewBox="0 0 32 32" version="1.1" xmlns="http://www.w3.org/2000/svg" stroke="#272727">
<g id="SVGRepo_bgCarrier" stroke-width="0"/>
<g id="SVGRepo_tracerCarrier" stroke-linecap="round" stroke-linejoin="round"/>
<g id="SVGRepo_iconCarrier"> <title>list</title> <path d="M6 12.25h-2c-1.518 0.002-2.748 1.232-2.75 2.75v2c0.002 1.518 1.232 2.748 2.75 2.75h2c1.518-0.002 2.748-1.232 2.75-2.75v-2c-0.002-1.518-1.232-2.748-2.75-2.75h-0zM7.25 17c-0.001 0.69-0.56 1.249-1.25 1.25h-2c-0.69-0.001-1.249-0.56-1.25-1.25v-2c0.001-0.69 0.56-1.249 1.25-1.25h2c0.69 0.001 1.249 0.56 1.25 1.25v0zM30 15.25h-17c-0.414 0-0.75 0.336-0.75 0.75s0.336 0.75 0.75 0.75v0h17c0.414 0 0.75-0.336 0.75-0.75s-0.336-0.75-0.75-0.75v0zM6 1.25h-2c-1.518 0.002-2.748 1.232-2.75 2.75v2c0.002 1.518 1.232 2.748 2.75 2.75h2c1.518-0.002 2.748-1.232 2.75-2.75v-2c-0.002-1.518-1.232-2.748-2.75-2.75h-0zM7.25 6c-0.001 0.69-0.56 1.249-1.25 1.25h-2c-0.69-0.001-1.249-0.56-1.25-1.25v-2c0.001-0.69 0.56-1.249 1.25-1.25h2c0.69 0.001 1.249 0.56 1.25 1.25v0zM13 5.75h17c0.414 0 0.75-0.336 0.75-0.75s-0.336-0.75-0.75-0.75v0h-17c-0.414 0-0.75 0.336-0.75 0.75s0.336 0.75 0.75 0.75v0zM6 23.25h-2c-1.518 0.002-2.748 1.232-2.75 2.75v2c0.002 1.518 1.232 2.748 2.75 2.75h2c1.518-0.002 2.748-1.232 2.75-2.75v-2c-0.002-1.518-1.232-2.748-2.75-2.75h-0zM7.25 28c-0.001 0.69-0.56 1.249-1.25 1.25h-2c-0.69-0.001-1.249-0.56-1.25-1.25v-2c0.001-0.69 0.56-1.249 1.25-1.25h2c0.69 0.001 1.249 0.56 1.25 1.25v0zM30 26.25h-17c-0.414 0-0.75 0.336-0.75 0.75s0.336 0.75 0.75 0.75v0h17c0.414 0 0.75-0.336 0.75-0.75s-0.336-0.75-0.75-0.75v0z"/> </g>
</svg>