<!DOCTYPE svg PUBLIC "-//W3C//DTD SVG 1.1//EN" "http://www.w3.org/Graphics/SVG/1.1/DTD/svg11.dtd">
<!-- Uploaded to: SVG Repo, www.svgrepo.com, Transformed by: SVG Repo Mixer Tools -->
<svg height="256px" width="256px" version="1.1" id="Layer_1" xmlns="http://www.w3.org/2000/svg" xmlns:xlink="http://www.w3.org/1999/xlink" viewBox="-51.2 -51.2 614.40 614.40" xml:space="preserve" fill="#000000" stroke="#000000" stroke-width="0.00512">
<g id="SVGRepo_bgCarrier" stroke-width="0">
<rect x="-51.2" y="-51.2" width="614.40" height="614.40" rx="0" fill="#FFF8F3" strokewidth="0"/>
</g>
<g id="SVGRepo_tracerCarrier" stroke-linecap="round" stroke-linejoin="round" stroke="#CCCCCC" stroke-width="1.024"/>
<g id="SVGRepo_iconCarrier"> <path style="fill:#FFD600;" d="M256,123.915L443.915,391.16l43.574-3.075v-32.681C487.489,227.557,383.849,123.915,256,123.915z"/> <path style="fill:#FF6B00;" d="M256,123.915c-127.849,0-231.489,103.642-231.489,231.489v32.681L256,404.426l187.915-13.265v-35.756 C443.915,227.557,359.782,123.915,256,123.915z"/> <polygon style="fill:#FFD600;" points="454.809,388.085 443.915,404.426 443.915,420.766 476.596,420.766 487.489,388.085 "/> <polygon style="fill:#FFD600;" points="24.511,388.085 35.404,420.766 443.915,420.766 454.809,388.085 "/> <circle cx="71.342" cy="306.383" r="8.17"/> <circle cx="104.023" cy="322.723" r="8.17"/> <path d="M24.511,363.574c4.512,0,8.17-3.657,8.17-8.17c0-123.138,100.18-223.319,223.319-223.319s223.319,100.181,223.319,223.319 c0,4.513,3.658,8.17,8.17,8.17s8.17-3.657,8.17-8.17c0-64.015-24.929-124.199-70.195-169.464 c-43.335-43.334-100.343-68.014-161.294-70.043V99.404h8.17c4.512,0,8.17-3.657,8.17-8.17s-3.658-8.17-8.17-8.17H239.66 c-4.512,0-8.17,3.657-8.17,8.17s3.658,8.17,8.17,8.17h8.17v16.493c-60.951,2.028-117.96,26.709-161.294,70.043 C41.269,231.205,16.34,291.389,16.34,355.404C16.34,359.917,19.999,363.574,24.511,363.574z"/> <path d="M503.83,379.915h-16.152c-0.029-0.001-0.059,0-0.087,0H24.382c-0.048,0-16.212,0-16.212,0c-4.512,0-8.17,3.657-8.17,8.17 c0,4.513,3.658,8.17,8.17,8.17h10.451l9.032,27.095c1.112,3.337,4.234,5.586,7.751,5.586h441.191c3.516,0,6.639-2.25,7.751-5.586 l9.032-27.095h10.451c4.512,0,8.17-3.657,8.17-8.17C512,383.572,508.342,379.915,503.83,379.915z M470.707,412.596H41.293 l-5.447-16.34h440.307L470.707,412.596z"/> </g>
</svg>